<?xml version="1.0" encoding="utf-8"?>
<!-- Generator: Adobe Illustrator 27.5.0, SVG Export Plug-In . SVG Version: 6.00 Build 0)  -->
<svg version="1.1" id="Layer_1" xmlns="http://www.w3.org/2000/svg" xmlns:xlink="http://www.w3.org/1999/xlink" x="0px" y="0px"
	 viewBox="0 0 1428 384" style="enable-background:new 0 0 1428 384;" xml:space="preserve">
<style type="text/css">
	.st0{fill:#E50914;}
</style>
<g id="Netflix_x5F_Logo_x5F_RGB_1_">
	<g>
		<path class="st0" d="M1102.6,348.2c20.1,1.5,40.1,3.2,60.1,5V0.3h-60.1V348.2z M135.9,217.3L57.6,0.3H0.5v383.4
			c20-2.8,40-5.6,60.1-8.2V167L130.2,367c21.9-2.5,43.8-4.9,65.8-7.2V0.3h-60.1V217.3z M253.8,354.2c55.4-5,111-9.2,166.9-12.4
			v-59.2c-35.7,2.1-71.3,4.5-106.8,7.3v-89.6c23.3-0.2,54-0.9,81.2-0.6v-59.2c-21.7-0.1-56.6,0.3-81.2,0.6V60.1h106.8V0.3H253.8
			V354.2z M459.2,60.1h62.9V337c20-0.8,40-1.4,60.1-1.9v-275h62.9V0.3H459.2V60.1z M683.6,333.4l60.1,0V196.7h81.5v-59.2h-81.5V60.1
			h107.7V0.3H683.6V333.4z M1427.5,0.3h-66L1318,101.2L1278.9,0.3h-65l69.9,180.2l-76.3,176.8c21.1,2.1,42.1,4.3,63.2,6.6
			l44.4-102.8l43.9,113.3c22.9,2.9,45.7,6,68.5,9.3l0.1,0l-78.3-201.9L1427.5,0.3z M950,0.3h-60.1v336.1c54.6,1.9,109,4.6,163.2,8.2
			v-59.2c-34.3-2.3-68.6-4.2-103.1-5.8V0.3z"/>
	</g>
</g>
</svg>
